<svg xmlns="http://www.w3.org/2000/svg" xmlns:xlink="http://www.w3.org/1999/xlink" width="108" height="70" version="1.1" viewBox="0 0 108 70"><title>Group 3</title><desc>Created with Sketch.</desc><g id="Welcome" fill="none" fill-rule="evenodd" stroke="none" stroke-width="1"><g id="Community" transform="translate(-764.000000, -630.000000)"><g id="Group-3" transform="translate(764.000000, 630.000000)"><g id="Group" fill="#00AAB2"><rect id="Rectangle-13" width="64.75" height="46.375" x="0" y="0" rx="2"/><path id="Path-2" d="M6.28649902,45.3034668 C6.60892741,50.6918945 5.0349528,53.3861084 1.5645752,53.3861084 C-3.64099121,53.3861084 16.4814453,56.6682129 16.4814453,45.3034668 C16.4814453,37.7269694 13.0831299,37.7269694 6.28649902,45.3034668 Z"/></g><circle id="Oval-3" cx="16.625" cy="22.75" r="4.375" fill="#D8D8D8"/><circle id="Oval-3" cx="33.25" cy="22.75" r="4.375" fill="#D8D8D8"/><g id="Group" fill="#3ACCC5" transform="translate(71.625000, 40.875000) scale(-1, 1) translate(-71.625000, -40.875000) translate(35.625000, 11.375000)"><rect id="Rectangle-13" width="71.119" height="50.936" x="0" y="0" rx="2"/><path id="Path-2" d="M7.08170934,49.3991879 C7.43524504,55.2322257 5.70941616,58.1487445 1.9042227,58.1487445 C-3.80356749,58.1487445 18.2602459,61.7016621 18.2602459,49.3991879 C18.2602459,41.1975385 14.534067,41.1975385 7.08170934,49.3991879 Z"/></g><circle id="Oval-3" cx="55.125" cy="36.75" r="4.375" fill="#FFF"/><circle id="Oval-3" cx="71.75" cy="36.75" r="4.375" fill="#FFF"/><circle id="Oval-3" cx="89.25" cy="36.75" r="4.375" fill="#FFF"/></g></g></g></svg>