<svg xmlns="http://www.w3.org/2000/svg" xmlns:xlink="http://www.w3.org/1999/xlink" width="77" height="65" version="1.1" viewBox="0 0 77 65"><title>Asset 6</title><desc>Created with Sketch.</desc><g id="Welcome" fill="none" fill-rule="evenodd" stroke="none" stroke-width="1"><g id="Home" transform="translate(-770.000000, -1071.000000)"><g id="Asset-6" transform="translate(770.000000, 1071.000000)"><polygon id="Shape" fill="#FFF" fill-rule="nonzero" points="48.155 36.18 46.525 36.18 46.525 35.078 22.331 18.718 17.021 18.718 17.605 21.164 17.021 32.467 17.021 37.182 16.316 46.216 62.995 46.216"/><polygon id="Shape" fill="#00797F" fill-rule="nonzero" points="3.878 10.334 3.878 7.756 2.589 7.756 0 7.756 0 10.334 0 15.512 3.878 15.512"/><polygon id="Shape" fill="#00797F" fill-rule="nonzero" points="9.045 34.891 0 34.891 0 38.769 9.045 38.769"/><polygon id="Shape" fill="#00797F" fill-rule="nonzero" points="3.878 28.435 3.878 21.968 0 21.968 0 28.435 0 29.724 3.878 29.724"/><polygon id="Shape" fill="#00797F" fill-rule="nonzero" points="42.647 3.878 45.225 3.878 45.225 0 42.647 0 38.769 0 36.18 0 36.18 3.878 38.769 3.878"/><polygon id="Shape" fill="#00797F" fill-rule="nonzero" points="29.724 3.878 32.302 3.878 32.302 0 29.724 0 24.557 0 23.257 0 23.257 3.878 24.557 3.878"/><polygon id="Shape" fill="#00797F" fill-rule="nonzero" points="58.158 3.878 58.158 0 51.692 0 49.103 0 49.103 3.878 51.692 3.878"/><polygon id="Shape" fill="#00797F" fill-rule="nonzero" points="3.878 3.878 3.878 0 0 0 0 3.878"/><polygon id="Shape" fill="#00797F" fill-rule="nonzero" points="16.801 3.878 18.09 3.878 18.09 0 16.801 0 10.334 0 9.045 0 9.045 1.289 9.045 3.878 10.334 3.878"/><polygon id="Shape" points="18.652 20.932 18.652 20.932 18.652 18.718"/><polygon id="Shape" fill="#3ACCC5" fill-rule="nonzero" points="18.685 46.216 18.652 20.932 18.652 20.932 18.652 18.718 22.331 18.718 9.056 9.75 9.056 20.932 9.045 20.932 9.045 34.891 9.045 36.18 9.045 38.769 9.045 50.92 9.056 50.92 9.056 55.448 37.865 55.448 37.865 60.02 23.433 60.02 23.433 64.614 61.871 64.614 61.871 60.031 47.45 60.031 47.45 55.459 76.248 55.448 76.248 55.173 62.995 46.216"/><rect id="Rectangle-path" width="4.803" height="1.752" x="52.353" y="7.756" fill="#00797F" fill-rule="nonzero"/><polygon id="Shape" fill="#00AAB2" fill-rule="nonzero" points="66.003 9.508 57.156 9.508 52.353 9.508 9.056 9.508 9.056 9.75 22.331 18.718 66.664 18.718 66.664 46.216 62.995 46.216 76.248 55.173 76.248 9.508"/><polygon id="Shape" fill="#FFF" fill-rule="nonzero" points="46.525 36.18 48.155 36.18 46.525 35.078"/><path id="Shape" fill="#E8E8E8" fill-rule="nonzero" d="M46.5245763,34.890678 L49.1025424,34.890678 L49.1025424,36.179661 L48.1550847,36.179661 L62.9949153,46.2711864 L66.6635593,46.2711864 L66.6635593,18.7288136 L22.3313559,18.7288136 L46.5686441,35.0889831 L46.5245763,34.890678 Z M52.9805085,21.9677966 L56.8584746,21.9677966 L56.8584746,29.679661 L52.9805085,29.679661 L52.9805085,21.9677966 Z M52.9805085,34.890678 L56.8584746,34.890678 L56.8584746,38.7686441 L52.9805085,38.7686441 L52.9805085,34.890678 Z"/><rect id="Rectangle-path" width="3.878" height="3.878" x="52.981" y="34.891" fill="#E8E8E8" fill-rule="nonzero"/><rect id="Rectangle-path" width="3.878" height="7.756" x="52.981" y="21.968" fill="#E8E8E8" fill-rule="nonzero"/><polygon id="Shape" fill="#E8E8E8" fill-rule="nonzero" points="49.103 34.891 46.525 34.891 46.525 35.078 48.155 36.18 49.103 36.18"/></g></g></g></svg>