<svg xmlns="http://www.w3.org/2000/svg" xmlns:xlink="http://www.w3.org/1999/xlink" width="292pt" height="287pt" viewBox="0 0 292 286.51"><g id="graph0" class="graph" transform="scale(1 1) rotate(0) translate(4 282.5052)"><title>bridge</title><polygon fill="#fff" stroke="transparent" points="-4 4 -4 -282.505 288 -282.505 288 4 -4 4"/><g id="clust1" class="cluster"><title>cluster_kubevirtci</title><polygon fill="#3cb371" stroke="#3cb371" points="8 -8 8 -270.505 276 -270.505 276 -8 8 -8"/><text x="142" y="-253.905" fill="#000" font-family="Times,serif" font-size="14" text-anchor="middle">kubevirtci cluster</text></g><g id="clust2" class="cluster"><title>cluster_node01</title><polygon fill="#8b864e" stroke="#8b864e" points="146 -72 146 -237.705 268 -237.705 268 -72 146 -72"/><text x="207" y="-221.105" fill="#000" font-family="Times,serif" font-size="14" text-anchor="middle">node01</text></g><g id="clust3" class="cluster"><title>cluster_vma</title><polygon fill="#b4cdcd" stroke="#b4cdcd" points="204 -80 204 -160.905 260 -160.905 260 -80 204 -80"/><text x="232" y="-144.305" fill="#000" font-family="Times,serif" font-size="14" text-anchor="middle">vma</text></g><g id="clust4" class="cluster"><title>cluster_node02</title><polygon fill="#8b864e" stroke="#8b864e" points="16 -72 16 -237.705 138 -237.705 138 -72 16 -72"/><text x="77" y="-221.105" fill="#000" font-family="Times,serif" font-size="14" text-anchor="middle">node02</text></g><g id="clust5" class="cluster"><title>cluster_vmb</title><polygon fill="#b4cdcd" stroke="#b4cdcd" points="74 -80 74 -160.905 130 -160.905 130 -80 74 -80"/><text x="102" y="-144.305" fill="#000" font-family="Times,serif" font-size="14" text-anchor="middle">vmb</text></g><g id="node1" class="node"><title>nd_br1_kubevirtci</title><polygon fill="gold" stroke="gold" points="127 -52 91 -52 91 -16 127 -16 127 -52"/><text x="109" y="-29.8" fill="#000" font-family="Times,serif" font-size="14" text-anchor="middle">br1</text></g><g id="node2" class="node"><title>nd_br0_node01</title><polygon fill="gold" stroke="gold" points="221 -204.905 185 -204.905 185 -168.905 221 -168.905 221 -204.905"/><text x="203" y="-182.705" fill="#000" font-family="Times,serif" font-size="14" text-anchor="middle">br0</text></g><g id="node3" class="node"><title>nd_eth1_node01</title><polygon fill="gold" stroke="gold" points="194.105 -128.158 153.895 -128.158 153.895 -87.947 194.105 -87.947 194.105 -128.158"/><text x="174" y="-103.853" fill="#000" font-family="Times,serif" font-size="14" text-anchor="middle">eth1</text></g><g id="edge3" class="edge"><title>nd_br0_node01--nd_eth1_node01</title><path fill="none" stroke="#000" d="M196.2739,-168.6166C191.8232,-156.5147 185.985,-140.6405 181.4024,-128.18"/></g><g id="node4" class="node"><title>nd_eth1_vma</title><polygon fill="gold" stroke="gold" points="252.105 -128.158 211.895 -128.158 211.895 -87.947 252.105 -87.947 252.105 -128.158"/><text x="232" y="-103.853" fill="#000" font-family="Times,serif" font-size="14" text-anchor="middle">eth1</text></g><g id="edge4" class="edge"><title>nd_br0_node01--nd_eth1_vma</title><path fill="none" stroke="#000" d="M209.7261,-168.6166C214.1768,-156.5147 220.015,-140.6405 224.5976,-128.18"/></g><g id="edge1" class="edge"><title>nd_eth1_node01--nd_br1_kubevirtci</title><path fill="none" stroke="#000" d="M156.2385,-87.8174C146.4655,-76.6833 134.4366,-62.9792 124.9632,-52.1864"/></g><g id="node5" class="node"><title>nd_br0_node02</title><polygon fill="gold" stroke="gold" points="91 -204.905 55 -204.905 55 -168.905 91 -168.905 91 -204.905"/><text x="73" y="-182.705" fill="#000" font-family="Times,serif" font-size="14" text-anchor="middle">br0</text></g><g id="node6" class="node"><title>nd_eth1_node02</title><polygon fill="gold" stroke="gold" points="64.105 -128.158 23.895 -128.158 23.895 -87.947 64.105 -87.947 64.105 -128.158"/><text x="44" y="-103.853" fill="#000" font-family="Times,serif" font-size="14" text-anchor="middle">eth1</text></g><g id="edge5" class="edge"><title>nd_br0_node02--nd_eth1_node02</title><path fill="none" stroke="#000" d="M66.2739,-168.6166C61.8232,-156.5147 55.985,-140.6405 51.4024,-128.18"/></g><g id="node7" class="node"><title>nd_eth1_vmb</title><polygon fill="gold" stroke="gold" points="122.105 -128.158 81.895 -128.158 81.895 -87.947 122.105 -87.947 122.105 -128.158"/><text x="102" y="-103.853" fill="#000" font-family="Times,serif" font-size="14" text-anchor="middle">eth1</text></g><g id="edge6" class="edge"><title>nd_br0_node02--nd_eth1_vmb</title><path fill="none" stroke="#000" d="M79.7261,-168.6166C84.1768,-156.5147 90.015,-140.6405 94.5976,-128.18"/></g><g id="edge2" class="edge"><title>nd_eth1_node02--nd_br1_kubevirtci</title><path fill="none" stroke="#000" d="M61.7615,-87.8174C71.5345,-76.6833 83.5634,-62.9792 93.0368,-52.1864"/></g></g></svg>